# xmcd
#
# Track frame offsets:
#	150
#	2792
#	21025
#	40280
#	54824
#	73550
#	92892
#	111924
#	126368
#	141478
#	155822
#	173707
#
# Disc length: 2593 seconds
#
# Revision: 11
# Processed by: cddbd v1.5.2PL0 Copyright (c) Steve Scherf et al.
# Submitted via: Jack! The Knife 20 Magnifico
#
DISCID=a40a1f0c
DTITLE=Black Veil Brides - We Stitch These Wounds
DYEAR=2010
DGENRE=Metal
TTITLE0=The Outcasts (Call To Arms)
TTITLE1=We Stitch These Wounds
TTITLE2=Beautiful Remains
TTITLE3=Children Surrender
TTITLE4=Perfect Weapon
TTITLE5=Knives And Pens
TTITLE6=The Mortician's Daughter
TTITLE7=All Your Hate
TTITLE8=Heaven's Calling
TTITLE9=Never Give In
TTITLE10=Sweet Blasphemy
TTITLE11=Carolyn
EXTD=Blasko
EXTT0=Biersack, Pitts
EXTT1=Biersack, Pitts
EXTT2=Biersack, Pitts
EXTT3=Biersack, Pitts
EXTT4=Biersack, Pitts
EXTT5=Biersack, Pitts
EXTT6=Biersack, Pitts
EXTT7=Biersack, Pitts
EXTT8=Biersack, Pitts
EXTT9=Biersack, Pitts
EXTT10=Biersack, Pitts
EXTT11=Biersack, Pitts
PLAYORDER=
